<?xml version="1.0" standalone="no"?>
<!DOCTYPE svg PUBLIC "-//W3C//DTD SVG 20010904//EN"
 "http://www.w3.org/TR/2001/REC-SVG-20010904/DTD/svg10.dtd">
<svg version="1.0" xmlns="http://www.w3.org/2000/svg"
 width="1514.000000pt" height="1514.000000pt" viewBox="0 0 1514.000000 1514.000000"
 preserveAspectRatio="xMidYMid meet">

<g transform="translate(0.000000,1514.000000) scale(0.100000,-0.100000)"
fill="#000000" stroke="none">
<path d="M0 7570 l0 -7570 7570 0 7570 0 0 7570 0 7570 -7570 0 -7570 0 0
-7570z m10680 4823 c0 -20 -3 -24 -11 -16 -7 7 -9 19 -6 27 10 24 17 19 17
-11z m-4000 -72 c0 -25 -5 -30 -44 -40 -24 -6 -51 -13 -60 -17 -9 -3 -16 -1
-16 4 0 6 12 12 28 14 19 2 26 8 24 21 -2 9 2 17 8 17 5 0 10 -7 10 -15 0 -23
16 -18 17 7 2 17 17 37 31 38 1 0 2 -13 2 -29z m796 -55 c39 -18 131 -52 205
-74 206 -62 298 -98 372 -146 60 -39 76 -44 145 -50 127 -11 841 -8 922 3 97
13 336 14 361 1 24 -13 25 -56 2 -68 -10 -5 -47 -12 -82 -16 -73 -8 -195 -34
-331 -69 -99 -26 -216 -47 -380 -67 -52 -7 -120 -20 -150 -30 -30 -9 -80 -23
-110 -29 -30 -7 -61 -14 -67 -16 -9 -3 2 -34 33 -97 56 -116 58 -161 7 -166
-40 -4 -91 29 -213 138 -47 41 -130 111 -185 155 -97 77 -116 93 -221 182 -27
24 -80 64 -119 90 -38 27 -91 75 -117 108 -34 42 -64 67 -100 83 -91 42 -100
41 -259 -35 -134 -64 -320 -169 -414 -234 -83 -57 -375 -239 -495 -309 -243
-141 -263 -154 -315 -204 -29 -28 -80 -78 -114 -110 -64 -62 -65 -64 -121
-266 -67 -242 -89 -330 -120 -489 -16 -82 -22 -97 -48 -118 -17 -13 -68 -76
-114 -141 -86 -122 -220 -304 -305 -413 -27 -35 -90 -116 -139 -179 -211 -272
-231 -290 -320 -290 -17 0 -71 -7 -120 -15 -159 -25 -317 -44 -431 -51 -161
-9 -161 -10 -4 241 48 77 121 196 162 264 79 133 144 230 501 754 263 385 313
456 383 552 28 39 69 95 91 125 66 93 290 379 356 455 76 87 93 98 228 146 58
21 132 47 165 59 125 46 554 194 655 226 58 18 170 45 250 59 80 14 165 30
190 36 236 49 273 50 366 5z m374 4 c8 -5 11 -10 5 -10 -5 0 -17 5 -25 10 -8
5 -10 10 -5 10 6 0 17 -5 25 -10z m943 -107 c-7 -2 -19 -2 -25 0 -7 3 -2 5 12
5 14 0 19 -2 13 -5z m-1337 -71 c32 -31 81 -84 109 -117 69 -84 125 -145 314
-343 120 -126 192 -193 263 -244 l99 -70 34 17 c63 29 118 45 137 39 44 -14
42 -75 -4 -109 -244 -175 -281 -195 -330 -176 -30 11 -72 59 -100 115 -30 60
-123 183 -153 202 -40 26 -268 124 -290 124 -22 0 -127 -52 -290 -144 -56 -31
-186 -94 -290 -140 -372 -164 -566 -266 -642 -339 -37 -35 -49 -66 -58 -152
-3 -33 -13 -89 -21 -125 -8 -36 -21 -101 -29 -145 -44 -254 -56 -329 -75 -457
-26 -188 -37 -254 -72 -428 -27 -134 -52 -280 -78 -455 -10 -68 -41 -256 -79
-480 -35 -202 -36 -266 -8 -390 26 -111 98 -326 139 -413 30 -62 39 -240 14
-261 -41 -34 -92 20 -155 167 -73 168 -192 406 -238 474 -81 120 -173 274
-199 333 -26 60 -29 88 -15 144 34 129 41 173 51 321 6 91 17 199 25 240 7 41
18 109 25 150 6 41 16 93 20 115 5 22 21 103 35 180 14 77 32 165 40 195 8 30
21 91 29 135 8 44 22 107 31 140 18 70 34 144 72 345 24 128 27 171 29 362 l1
218 95 102 c106 115 245 218 458 342 141 83 208 124 470 291 200 128 509 293
551 294 18 1 42 -15 85 -57z m967 41 c-7 -2 -19 -2 -25 0 -7 3 -2 5 12 5 14 0
19 -2 13 -5z m1487 -215 c124 -137 303 -364 425 -538 33 -47 96 -123 140 -170
113 -120 215 -279 215 -334 0 -14 -12 -70 -26 -123 -18 -68 -30 -155 -40 -283
-17 -224 -37 -603 -35 -682 1 -32 2 -93 3 -135 1 -43 -4 -197 -12 -343 -18
-342 -18 -488 -2 -520 7 -14 37 -56 66 -94 107 -138 336 -545 336 -598 0 -94
-94 -137 -193 -87 -129 65 -361 286 -531 504 -155 199 -148 175 -139 458 5
129 4 257 0 283 -9 56 -4 182 24 659 15 250 19 391 14 535 -5 165 -3 219 14
350 12 85 21 192 21 236 0 73 -3 88 -33 145 -109 207 -153 290 -183 336 -18
28 -40 73 -49 100 -28 81 -65 106 -87 59 -8 -19 -7 -36 6 -75 9 -27 16 -68 16
-91 0 -27 12 -63 37 -111 28 -54 34 -72 24 -82 -17 -17 -41 1 -78 63 -33 54
-56 111 -67 163 -9 40 -42 35 -131 -19 -41 -25 -103 -56 -136 -69 -34 -14 -86
-38 -116 -55 -90 -51 -192 -87 -423 -150 -106 -29 -267 -86 -328 -117 -58 -29
-81 -109 -44 -151 22 -25 120 -92 136 -92 11 0 41 23 134 103 24 20 58 45 75
54 53 27 383 131 465 147 47 8 113 -9 212 -55 65 -31 92 -39 117 -34 27 5 39
0 75 -32 54 -48 53 -47 110 -122 38 -50 56 -88 88 -189 38 -119 40 -134 40
-248 0 -151 -3 -155 -95 -131 -87 23 -97 22 -178 -22 -262 -140 -388 -234
-558 -413 -80 -84 -202 -213 -272 -287 -70 -74 -127 -139 -127 -144 0 -6 8
-19 17 -30 10 -10 27 -44 39 -75 17 -46 26 -58 45 -60 31 -4 129 60 337 217
170 128 270 201 278 201 2 0 21 11 42 25 34 22 49 25 187 30 164 6 220 12 249
27 38 20 46 -12 45 -186 -1 -89 -4 -172 -8 -186 -9 -32 -45 -38 -73 -13 -30
27 -197 31 -270 7 -239 -78 -515 -272 -640 -449 -90 -126 -174 -325 -166 -392
2 -22 9 -29 29 -31 25 -3 27 0 31 47 5 51 56 169 111 256 100 158 231 277 429
388 176 100 208 110 344 115 118 4 121 3 151 -22 38 -32 43 -54 35 -131 l-7
-59 -150 -2 c-82 -1 -177 -5 -210 -9 -55 -7 -64 -12 -110 -59 -64 -64 -226
-242 -254 -277 -11 -15 -34 -29 -50 -32 -46 -10 -61 -43 -68 -149 -6 -93 -6
-93 -49 -140 -54 -57 -59 -103 -19 -144 28 -28 83 -54 114 -54 11 0 27 -14 39
-34 11 -19 33 -42 49 -52 15 -10 37 -25 48 -35 24 -21 229 -102 314 -124 33
-8 100 -29 147 -46 105 -37 146 -34 169 11 9 17 21 30 28 30 26 0 115 49 170
94 31 25 63 46 70 46 7 0 24 -11 37 -25 25 -27 95 -68 220 -130 41 -21 86 -45
100 -55 14 -9 60 -31 102 -49 43 -19 80 -41 83 -50 3 -10 18 -147 35 -307 16
-159 34 -320 40 -359 6 -38 15 -101 20 -140 5 -38 16 -119 24 -180 9 -60 25
-186 36 -280 11 -93 25 -203 30 -243 6 -40 10 -114 10 -164 0 -104 6 -91 -160
-368 -186 -311 -327 -528 -474 -730 -58 -80 -151 -212 -206 -295 -141 -212
-161 -237 -237 -297 -115 -91 -369 -228 -422 -228 -14 0 -55 -9 -89 -20 -35
-11 -79 -20 -98 -20 -50 0 -136 -38 -249 -110 -153 -98 -248 -134 -465 -177
-83 -16 -377 -13 -460 5 -25 5 -97 20 -160 32 -241 46 -1050 304 -1260 401
-126 58 -263 137 -383 220 -138 97 -128 87 -432 399 -51 52 -144 157 -206 233
-63 77 -131 160 -153 185 -46 56 -80 107 -177 267 -40 66 -84 136 -98 155
-112 156 -225 297 -341 425 l-81 90 6 135 c3 74 21 276 40 449 18 172 31 320
28 327 -3 8 -16 14 -28 14 -30 0 -39 -28 -60 -180 -21 -153 -23 -157 -82 -165
-26 -4 -61 -13 -78 -20 -76 -34 -224 -45 -296 -24 -49 15 -66 35 -124 144 -27
50 -70 124 -96 166 -49 79 -62 108 -128 280 l-41 105 0 185 c0 178 1 186 25
229 14 25 48 89 75 142 52 101 136 245 211 360 24 38 55 86 69 109 53 86 80
105 180 123 94 18 157 15 217 -9 27 -12 43 -37 123 -197 100 -198 132 -248
159 -248 49 0 53 55 12 155 -24 58 -27 73 -17 90 16 26 267 195 286 192 12 -2
15 -19 15 -87 0 -80 2 -90 44 -173 24 -49 91 -161 149 -250 58 -89 122 -198
142 -242 130 -280 210 -433 241 -463 48 -46 99 -60 145 -39 55 27 69 69 68
212 0 110 -2 125 -28 180 -38 81 -106 275 -106 303 0 46 27 39 288 -70 129
-54 260 -69 284 -34 12 18 9 53 -5 65 -12 10 -111 40 -277 86 -91 26 -125 46
-128 79 l-4 29 77 -7 c42 -4 123 -11 178 -16 251 -23 722 -3 764 32 7 6 13 18
13 28 0 16 -82 99 -150 150 -29 22 -31 27 -18 40 29 30 28 49 -2 84 -42 48
-152 102 -255 126 -48 11 -122 32 -164 46 -152 52 -395 84 -423 56 -19 -19 -1
-41 39 -47 137 -22 178 -30 259 -51 93 -24 173 -48 209 -63 39 -17 80 -30 115
-35 73 -12 198 -106 142 -106 -11 0 -63 13 -116 30 -207 63 -414 89 -723 90
-113 0 -140 12 -128 57 8 32 34 182 45 263 6 36 18 108 28 160 16 83 21 97 44
107 16 8 105 15 254 19 l229 6 77 -31 c43 -17 126 -55 185 -85 312 -156 520
-230 587 -210 30 9 56 34 56 54 0 17 -236 212 -320 265 -25 15 -67 42 -95 60
-97 63 -316 200 -353 222 -48 29 -139 30 -283 3 -94 -17 -234 -51 -270 -65 -8
-3 -23 0 -32 8 -20 14 -19 23 24 247 6 30 14 75 19 100 6 37 70 346 122 595
18 82 101 188 227 289 47 38 117 95 154 126 72 61 166 111 347 186 116 47 311
119 365 134 213 61 309 73 372 49 43 -16 229 -215 255 -272 24 -52 58 -77 104
-77 32 0 75 33 213 163 57 53 107 97 112 97 4 0 28 30 52 68 57 88 91 121 168
162 35 18 107 61 159 95 96 63 194 116 240 130 47 14 305 133 479 221 187 94
254 123 286 124 14 0 44 -26 85 -72z m-4320 -2 c0 -2 -8 -10 -17 -17 -16 -13
-17 -12 -4 4 13 16 21 21 21 13z m4965 -586 c10 -11 16 -20 13 -20 -3 0 -13 9
-23 20 -10 11 -16 20 -13 20 3 0 13 -9 23 -20z m-596 -1014 c77 -21 91 -37 91
-106 0 -34 -5 -62 -12 -67 -7 -6 -38 -13 -68 -16 -30 -3 -95 -16 -145 -30 -49
-13 -117 -30 -149 -37 -57 -12 -63 -16 -215 -164 -172 -166 -422 -395 -481
-439 -45 -34 -71 -27 -89 24 -11 32 -10 33 101 148 62 64 189 193 283 286 156
156 181 177 310 256 176 109 271 159 298 159 12 0 46 -7 76 -14z m-4399 -64
c0 -30 -23 -230 -41 -352 -16 -109 -27 -138 -75 -197 -44 -54 -78 -102 -238
-337 -149 -221 -183 -263 -230 -291 -44 -26 -216 -93 -451 -175 -66 -24 -140
-52 -165 -62 -55 -25 -98 -21 -230 21 -195 62 -487 149 -535 161 -27 6 -66 15
-85 21 -137 36 -208 49 -272 49 -111 1 -188 36 -188 86 0 14 8 25 21 29 12 4
105 2 208 -5 185 -11 366 -5 596 20 50 5 151 14 225 20 127 10 248 25 575 69
l139 18 44 49 c60 67 494 647 571 764 73 109 99 140 118 140 8 0 13 -11 13
-28z m5232 -97 c27 -60 148 -308 268 -551 235 -475 244 -488 323 -498 23 -3
121 -15 217 -27 182 -22 244 -31 345 -49 33 -5 132 -22 220 -36 213 -34 387
-73 405 -91 13 -13 13 -16 -6 -32 -12 -9 -66 -34 -120 -56 -55 -21 -182 -72
-284 -113 -327 -132 -431 -172 -448 -172 -9 0 -32 11 -52 25 -20 14 -116 48
-225 80 -187 55 -261 79 -400 129 -67 24 -77 32 -208 168 -76 79 -149 157
-163 174 l-24 31 10 264 c8 227 16 357 44 782 9 125 33 118 98 -28z m-4053
-643 c47 -33 120 -78 161 -102 41 -24 100 -60 130 -80 30 -20 87 -57 125 -82
113 -76 166 -138 116 -138 -19 0 -134 52 -386 175 -82 41 -179 86 -215 101
l-65 27 -239 -4 c-236 -4 -239 -4 -253 18 -13 19 -13 23 4 40 30 30 352 101
467 102 68 1 70 0 155 -57z m-3492 -168 c-3 -3 -12 -4 -19 -1 -8 3 -5 6 6 6
11 1 17 -2 13 -5z m8336 -111 c-7 -2 -19 -2 -25 0 -7 3 -2 5 12 5 14 0 19 -2
13 -5z m-8582 -240 c13 -16 12 -17 -3 -4 -10 7 -18 15 -18 17 0 8 8 3 21 -13z
m6964 -35 c11 0 29 2 40 4 18 3 20 -3 23 -75 2 -50 -1 -84 -9 -93 -15 -19 -63
-18 -101 2 -39 20 -118 20 -156 0 -49 -25 -104 -107 -190 -281 -45 -92 -73
-166 -87 -236 -2 -15 -12 -30 -22 -33 -18 -7 -114 47 -171 96 -18 15 -39 28
-48 28 -25 0 -93 39 -104 59 -15 28 -12 46 9 72 l19 24 26 -24 c14 -14 29 -21
33 -17 5 4 6 50 5 101 -3 59 0 101 8 116 7 13 56 68 109 122 83 85 103 100
151 114 65 19 252 32 365 25 44 -2 89 -4 100 -4z m-6078 -122 c87 -27 190 -57
275 -81 82 -23 83 -43 9 -127 -15 -18 -59 -73 -96 -123 -249 -327 -233 -303
-260 -410 -20 -81 -17 -205 11 -400 14 -104 20 -124 44 -150 25 -27 150 -234
150 -248 0 -7 59 -136 107 -235 68 -139 178 -225 303 -238 94 -9 96 -10 120
-66 37 -86 70 -181 70 -203 0 -25 42 -115 73 -158 13 -17 32 -52 41 -77 23
-59 92 -188 148 -276 24 -38 61 -100 83 -139 21 -38 68 -107 104 -151 36 -45
97 -125 136 -178 38 -54 95 -124 127 -156 52 -53 206 -175 281 -223 16 -10 49
-41 75 -69 26 -28 73 -79 105 -113 37 -40 57 -70 57 -86 0 -13 -16 -87 -35
-164 -32 -127 -63 -284 -80 -406 -8 -60 -27 -88 -48 -71 -9 8 -22 32 -30 55
-9 23 -43 121 -77 217 -114 325 -140 391 -185 480 -27 54 -48 73 -96 90 -71
25 -109 -9 -109 -97 0 -27 -61 -352 -110 -588 -6 -27 -35 -174 -65 -326 -52
-266 -69 -329 -86 -329 -14 0 -18 37 -24 255 -6 211 -27 522 -44 638 -40 274
-85 443 -127 476 -50 39 -200 73 -554 126 -129 19 -273 42 -320 50 -47 9 -164
29 -260 46 -173 30 -231 40 -332 58 -61 11 -255 45 -343 61 -279 48 -547 104
-725 152 -262 70 -280 77 -280 98 0 10 4 21 8 24 15 9 557 95 698 110 78 9
262 23 410 31 148 8 316 19 374 25 256 25 318 32 356 40 23 6 81 13 129 16 93
8 125 24 125 63 0 10 -19 72 -41 137 -57 164 -76 229 -105 374 -58 286 -94
546 -114 830 -11 144 -30 231 -72 328 -11 26 -27 76 -36 112 -20 78 -38 86
-85 38 -26 -25 -36 -47 -45 -93 -6 -33 -30 -154 -52 -270 -22 -115 -45 -235
-50 -265 -75 -414 -100 -500 -220 -747 -88 -182 -107 -213 -132 -224 -38 -15
-347 -5 -404 13 -41 14 -36 7 -167 233 -23 39 -80 129 -128 200 -162 243 -364
588 -354 605 11 17 51 11 126 -21 326 -135 644 -259 667 -259 46 0 61 25 200
330 74 162 102 225 210 480 63 149 187 421 247 540 78 156 134 248 221 361 87
113 83 111 201 75z m7289 -215 c82 -27 169 -55 194 -61 52 -13 90 -35 90 -52
0 -8 -52 -9 -187 -3 -208 8 -204 6 -248 81 -27 47 -33 84 -12 84 8 0 81 -22
163 -49z m-4992 30 c20 -4 35 -17 48 -41 31 -58 94 -108 162 -129 103 -32 140
-34 198 -16 61 20 88 40 88 67 0 10 9 27 20 38 18 18 22 18 72 4 95 -27 235
-85 257 -105 25 -24 26 -32 5 -50 -13 -11 -71 -14 -273 -13 -366 0 -513 14
-639 61 -48 18 -61 34 -87 109 -26 74 -19 84 57 83 35 -1 76 -4 92 -8z m3862
-167 c59 -39 114 -109 114 -144 0 -28 -46 -87 -81 -106 -37 -19 -103 -18 -119
2 -16 18 -22 253 -7 272 15 19 35 14 93 -24z m1289 -244 c7 -12 20 -95 35
-220 26 -239 97 -788 135 -1063 19 -131 12 -152 -41 -142 -45 8 -74 -2 -74
-25 0 -26 30 -43 130 -73 172 -51 172 -51 485 -53 301 -2 497 6 720 26 66 6
225 14 352 17 205 5 236 3 258 -11 28 -18 35 -66 12 -84 -7 -6 -53 -24 -102
-41 -115 -38 -216 -76 -283 -107 -29 -13 -54 -24 -56 -24 -3 0 -37 -15 -78
-34 -40 -18 -122 -55 -183 -81 -60 -26 -134 -58 -163 -71 -29 -13 -57 -24 -62
-24 -5 0 -24 -7 -42 -14 -18 -8 -107 -42 -198 -76 -91 -34 -209 -79 -263 -101
l-97 -39 -163 0 c-161 0 -333 17 -475 48 -87 18 -104 35 -91 90 5 20 6 78 3
127 -11 164 -67 606 -109 855 -20 121 -42 274 -60 425 -8 72 -23 170 -31 218
-15 81 -15 90 -1 105 15 14 24 13 103 -12 48 -16 113 -30 144 -33 52 -5 59 -3
74 18 37 53 15 115 -80 221 -18 20 -40 51 -50 69 -15 31 -15 33 2 46 10 7 27
13 38 13 12 0 50 14 86 30 67 30 114 38 125 20z m172 -202 c-3 -8 -6 -5 -6 6
-1 11 2 17 5 13 3 -3 4 -12 1 -19z m50 -390 c-3 -8 -6 -5 -6 6 -1 11 2 17 5
13 3 -3 4 -12 1 -19z m20 -130 c-3 -8 -6 -5 -6 6 -1 11 2 17 5 13 3 -3 4 -12
1 -19z m20 -140 c-3 -8 -6 -5 -6 6 -1 11 2 17 5 13 3 -3 4 -12 1 -19z m-9104
-55 c-7 -2 -19 -2 -25 0 -7 3 -2 5 12 5 14 0 19 -2 13 -5z m10320 -480 c-7 -2
-19 -2 -25 0 -7 3 -2 5 12 5 14 0 19 -2 13 -5z m594 1 c-3 -3 -12 -4 -19 -1
-8 3 -5 6 6 6 11 1 17 -2 13 -5z m-834 -21 c-7 -2 -19 -2 -25 0 -7 3 -2 5 12
5 14 0 19 -2 13 -5z m-776 -19 c-3 -3 -12 -4 -19 -1 -8 3 -5 6 6 6 11 1 17 -2
13 -5z m161 -1 c-10 -2 -28 -2 -40 0 -13 2 -5 4 17 4 22 1 32 -1 23 -4z m1512
-222 c-10 -19 -79 -70 -122 -91 -17 -8 -15 -4 6 12 16 13 49 40 73 61 50 42
58 45 43 18z m-2342 -645 c447 -428 682 -690 810 -900 29 -49 71 -115 91 -145
21 -31 61 -96 90 -146 50 -85 93 -148 184 -266 47 -61 69 -110 57 -128 -10
-17 -81 -1 -295 68 -299 96 -425 133 -552 160 -48 10 -136 32 -195 47 -106 28
-107 28 -128 9 -27 -25 -24 -48 23 -175 19 -52 48 -135 63 -185 15 -49 31 -97
35 -105 4 -8 26 -64 49 -125 24 -60 69 -163 101 -228 33 -64 77 -161 98 -215
50 -125 105 -249 193 -431 38 -79 67 -151 66 -160 -5 -26 -26 -18 -72 27 -45
45 -59 63 -139 188 -83 130 -168 215 -477 479 -58 49 -107 92 -110 95 -3 3
-61 50 -130 104 -69 55 -155 130 -193 168 -37 37 -74 68 -82 68 -8 0 -24 -9
-35 -20 -18 -18 -20 -33 -20 -132 0 -116 -7 -143 -32 -136 -8 1 -99 90 -201
196 -103 107 -205 207 -229 224 -69 51 -152 120 -161 134 -5 9 1 22 16 36 125
119 165 163 207 233 27 44 128 190 225 325 248 344 339 485 635 983 17 29 38
20 108 -47z m-9451 -52 c-3 -3 -12 -4 -19 -1 -8 3 -5 6 6 6 11 1 17 -2 13 -5z
m-107 -18 c0 -2 -8 -10 -17 -17 -16 -13 -17 -12 -4 4 13 16 21 21 21 13z
m4581 -1263 c13 -16 12 -17 -3 -4 -10 7 -18 15 -18 17 0 8 8 3 21 -13z m-1424
-95 c-3 -7 -5 -2 -5 12 0 14 2 19 5 13 2 -7 2 -19 0 -25z m1170 -100 c-3 -8
-6 -5 -6 6 -1 11 2 17 5 13 3 -3 4 -12 1 -19z m3946 -55 c-7 -2 -19 -2 -25 0
-7 3 -2 5 12 5 14 0 19 -2 13 -5z m-5096 -85 c-3 -7 -5 -2 -5 12 0 14 2 19 5
13 2 -7 2 -19 0 -25z m5174 -25 c13 -16 12 -17 -3 -4 -10 7 -18 15 -18 17 0 8
8 3 21 -13z m-5124 -70 c-2 -16 -4 -5 -4 22 0 28 2 40 4 28 2 -13 2 -35 0 -50z
m5424 -220 c13 -16 12 -17 -3 -4 -10 7 -18 15 -18 17 0 8 8 3 21 -13z m-2122
-64 c18 -11 31 -22 28 -25 -9 -9 -84 15 -97 31 -19 23 28 19 69 -6z m2211 -24
c13 -14 21 -25 18 -25 -2 0 -15 11 -28 25 -13 14 -21 25 -18 25 2 0 15 -11 28
-25z m397 -57 c-3 -7 -5 -2 -5 12 0 14 2 19 5 13 2 -7 2 -19 0 -25z m-246
-115 c13 -16 12 -17 -3 -4 -10 7 -18 15 -18 17 0 8 8 3 21 -13z m69 -65 c0
-12 -6 -9 -26 13 -19 22 -19 22 4 8 12 -8 22 -17 22 -21z m140 18 c0 -2 -8
-10 -17 -17 -16 -13 -17 -12 -4 4 13 16 21 21 21 13z m515 -186 c10 -11 16
-20 13 -20 -3 0 -13 9 -23 20 -10 11 -16 20 -13 20 3 0 13 -9 23 -20z m150
-130 c10 -11 16 -20 13 -20 -3 0 -13 9 -23 20 -10 11 -16 20 -13 20 3 0 13 -9
23 -20z"/>
<path d="M8772 8875 c-61 -51 -172 -241 -191 -326 -5 -24 -17 -79 -27 -121
-16 -71 -17 -79 -1 -115 9 -21 19 -53 22 -70 4 -18 11 -36 17 -39 22 -14 27
15 16 101 l-11 90 37 110 c49 144 95 226 174 303 35 34 62 68 59 75 -7 24 -63
19 -95 -8z"/>
<path d="M7505 8508 c25 -82 28 -110 17 -159 -13 -54 -10 -69 14 -69 39 0 45
157 8 219 -22 37 -50 43 -39 9z"/>
<path d="M4575 8414 c-191 -98 -274 -146 -302 -176 -13 -13 -42 -67 -64 -119
-37 -82 -42 -103 -41 -164 1 -119 88 -354 149 -406 32 -27 122 -54 256 -79 63
-11 72 -11 130 11 82 30 103 44 117 80 26 61 -28 149 -91 149 -15 0 -41 12
-58 26 -37 31 -41 76 -11 132 37 70 49 79 120 85 83 7 99 14 106 44 15 57 -93
462 -129 485 -20 13 -28 10 -182 -68z"/>
<path d="M8684 8405 c-20 -48 -18 -118 4 -145 18 -23 19 -22 30 70 6 51 9 97
6 102 -11 17 -25 7 -40 -27z"/>
<path d="M6925 8184 c-5 -2 -50 -12 -100 -22 -75 -16 -90 -22 -90 -38 0 -16 7
-19 52 -18 66 2 193 32 213 51 13 12 13 15 0 23 -15 10 -56 12 -75 4z"/>
<path d="M8947 8173 c-26 -26 26 -93 140 -179 43 -33 126 -98 185 -145 l108
-87 148 -35 c252 -62 384 -74 415 -39 20 22 22 48 5 59 -7 4 -38 8 -68 9 -89
2 -198 50 -262 116 -29 30 -74 69 -100 86 -77 53 -117 40 -127 -41 -4 -26 -12
-43 -21 -45 -9 -1 -43 18 -75 44 -33 25 -103 77 -155 114 -52 38 -113 87 -135
109 -40 42 -47 46 -58 34z"/>
<path d="M10307 7993 c-19 -32 -53 -91 -76 -131 -45 -77 -86 -112 -132 -112
-36 0 -43 -24 -22 -69 22 -44 47 -49 105 -23 89 40 141 94 196 203 29 56 52
109 52 119 0 28 -39 70 -65 70 -18 0 -32 -14 -58 -57z"/>
<path d="M10428 7813 c-24 -28 -88 -131 -88 -143 0 -44 114 57 122 109 7 51
-7 65 -34 34z"/>
<path d="M7303 7439 c-84 -74 -101 -95 -113 -139 -18 -66 15 -162 91 -265 16
-22 58 -78 93 -125 34 -47 74 -90 87 -97 13 -7 61 -22 107 -34 81 -21 84 -21
117 -3 44 23 57 12 79 -68 10 -35 24 -74 31 -88 18 -33 79 -63 200 -97 93 -26
113 -28 285 -28 139 0 191 3 210 14 37 21 138 100 188 148 l44 43 -6 112 c-4
69 -3 119 3 128 6 8 61 35 123 60 77 31 114 51 116 63 5 26 -44 22 -146 -13
-132 -46 -198 -81 -307 -164 -55 -42 -109 -76 -120 -76 -11 0 -45 7 -75 15
-30 9 -90 20 -134 25 -75 9 -81 11 -130 58 -57 54 -120 86 -211 107 -78 18
-208 29 -240 21 -40 -10 -32 -40 18 -62 34 -15 47 -30 71 -77 28 -55 28 -58
11 -77 -23 -25 -31 -25 -107 1 -97 32 -112 43 -159 116 -24 37 -63 92 -86 121
-71 88 -111 185 -98 242 3 15 35 62 71 103 35 41 64 78 64 81 0 16 -25 1 -77
-45z m581 -521 c7 -13 19 -39 25 -58 18 -55 40 -73 144 -124 82 -40 109 -48
177 -53 101 -8 182 10 213 46 12 14 54 58 93 98 69 71 106 89 117 60 10 -26
19 -147 13 -171 -7 -27 -172 -162 -218 -178 -19 -7 -92 -9 -197 -5 -135 4
-182 10 -254 30 -104 30 -134 48 -143 85 -4 15 -23 61 -42 102 -44 93 -46 130
-8 164 33 32 61 33 80 4z"/>
<path d="M10380 7275 c-35 -37 -60 -42 -106 -25 -33 13 -49 1 -41 -32 4 -13
30 -51 58 -85 66 -80 89 -83 123 -15 33 65 60 157 53 176 -11 27 -51 18 -87
-19z"/>
<path d="M9004 7225 c-4 -9 -1 -41 5 -73 21 -111 0 -153 -109 -211 -58 -31
-76 -51 -46 -51 22 0 144 57 166 77 10 11 26 35 35 56 18 44 20 152 2 187 -15
29 -45 38 -53 15z"/>
<path d="M9567 6440 c-133 -20 -272 -52 -417 -96 -47 -14 -155 -41 -240 -60
-303 -68 -334 -76 -424 -111 l-91 -35 -160 5 c-88 3 -178 11 -200 17 -22 6
-78 18 -125 26 -47 8 -123 21 -170 29 -277 48 -335 58 -435 76 -60 10 -139 24
-175 30 -36 7 -108 20 -160 30 -154 29 -191 32 -346 24 -134 -7 -149 -9 -170
-30 -27 -27 -64 -142 -93 -291 l-22 -111 29 -30 c28 -27 72 -142 72 -185 0 -8
13 -34 29 -59 27 -41 42 -89 71 -231 37 -185 295 -404 760 -646 293 -153 597
-246 1000 -307 121 -19 359 -21 452 -5 144 25 297 60 350 80 65 24 233 113
263 139 11 10 58 45 105 78 51 37 137 116 216 200 171 179 195 209 243 297 49
88 63 127 101 275 16 62 46 150 66 195 81 183 121 403 95 528 -17 79 -73 130
-179 164 -77 25 -294 27 -445 4z m441 -73 c52 -20 57 -25 70 -67 23 -78 20
-260 -7 -380 -48 -212 -100 -387 -135 -451 -13 -24 -29 -61 -36 -82 -21 -67
-123 -200 -370 -481 -44 -50 -272 -206 -368 -252 -107 -51 -155 -65 -347 -99
-207 -37 -364 -32 -650 20 -138 25 -404 97 -520 140 -38 15 -92 35 -120 45
-98 36 -458 234 -570 314 -321 227 -382 320 -458 696 -63 308 -60 284 -37 358
37 115 49 136 93 164 32 20 61 27 122 32 92 8 142 2 465 -60 129 -24 261 -49
293 -54 90 -16 158 -28 367 -66 325 -59 361 -64 485 -64 125 0 155 6 306 64
36 13 119 34 185 46 112 20 229 49 489 120 104 29 347 74 445 84 98 9 240 -4
298 -27z"/>
<path d="M9580 6101 c-41 -15 -100 -39 -131 -53 -31 -15 -96 -39 -145 -54 -49
-14 -154 -48 -234 -75 -165 -54 -198 -61 -442 -89 -236 -27 -366 -26 -552 4
-159 26 -322 47 -496 66 -183 20 -358 58 -441 95 -42 19 -82 35 -89 35 -7 0
-52 12 -100 26 l-87 26 -74 -34 c-100 -47 -114 -64 -114 -142 0 -53 5 -70 35
-120 41 -67 108 -145 200 -230 36 -34 130 -127 208 -208 233 -239 389 -328
822 -472 272 -90 353 -110 519 -126 109 -11 191 -3 271 25 66 23 234 111 325
169 83 54 148 126 253 283 23 34 66 88 95 120 52 56 140 178 221 306 48 75 91
186 77 200 -15 15 -24 4 -72 -88 -49 -96 -93 -155 -115 -155 -13 0 -14 20 -8
133 4 72 9 161 13 197 6 62 7 65 46 87 22 12 62 28 89 34 48 11 50 11 72 -14
25 -29 34 -26 34 13 0 35 -38 70 -76 69 -16 0 -63 -13 -104 -28z m-2499 -117
c53 -20 75 -43 90 -94 16 -52 5 -87 -34 -110 -73 -45 -164 -15 -217 71 -32 53
-41 124 -17 148 16 17 117 8 178 -15z m2286 -70 c8 -22 -54 -232 -78 -263 -29
-37 -89 -71 -126 -71 -48 0 -73 38 -73 112 0 77 -16 73 -42 -11 -25 -80 -110
-173 -173 -190 -135 -35 -461 -32 -583 6 -45 14 -60 15 -101 4 -48 -12 -155
-5 -271 19 -25 5 -97 19 -160 31 -123 23 -161 39 -181 76 -16 31 -45 38 -74
19 -34 -22 -71 -20 -130 8 -64 30 -100 66 -136 138 -31 61 -37 103 -16 111 7
2 60 -3 117 -13 129 -21 203 -32 490 -71 124 -16 268 -36 320 -44 52 -8 138
-14 191 -15 171 0 524 41 604 71 28 10 114 32 191 48 76 16 150 34 164 40 37
15 60 13 67 -5z m-2263 -307 c11 -5 65 -42 120 -82 145 -105 208 -197 151
-219 -14 -5 -22 -36 -10 -36 3 0 22 7 42 15 74 31 232 14 403 -44 14 -5 45
-14 70 -21 187 -52 195 -55 235 -112 61 -84 109 -85 184 -2 l40 44 101 0 c115
0 233 -23 261 -51 14 -14 19 -33 19 -78 0 -62 13 -111 29 -111 19 0 36 68 36
144 l0 78 -39 32 c-47 40 -45 59 12 103 34 25 53 33 87 33 37 0 47 -5 83 -44
22 -23 43 -54 47 -67 4 -13 18 -48 32 -78 36 -81 30 -98 -52 -148 -97 -59
-220 -118 -284 -137 -99 -29 -307 -12 -479 39 -187 56 -478 157 -560 196 -104
48 -282 156 -289 175 -3 8 -11 14 -19 14 -15 0 -354 336 -354 351 0 27 85 32
134 6z"/>
</g>
</svg>
